<svg width="185" height="185" viewBox="0 0 185 185" fill="none" xmlns="http://www.w3.org/2000/svg">
<g filter="url(#filter0_d_9928_209)">
<rect x="20.5" y="20.6665" width="144" height="144" rx="20" fill="url(#paint0_linear_9928_209)" shape-rendering="crispEdges"/>
<g clip-path="url(#clip0_9928_209)">
<path d="M75.8846 56.6665C74.3588 56.6665 73.1154 57.9099 73.1154 59.4357V67.7434C73.1154 69.2693 74.3588 70.5127 75.8846 70.5127C77.4105 70.5127 78.6538 69.2693 78.6538 67.7434V59.4357C78.6538 57.9099 77.4105 56.6665 75.8846 56.6665ZM109.115 56.6665C107.59 56.6665 106.346 57.9099 106.346 59.4357V67.7434C106.346 69.2693 107.59 70.5127 109.115 70.5127C110.641 70.5127 111.885 69.2693 111.885 67.7434V59.4357C111.885 57.9099 110.641 56.6665 109.115 56.6665ZM64.8077 62.205C60.2218 62.205 56.5 65.9268 56.5 70.5127V120.359C56.5 124.945 60.2218 128.667 64.8077 128.667H120.192C124.778 128.667 128.5 124.945 128.5 120.359V70.5127C128.5 65.9268 124.778 62.205 120.192 62.205H114.654V67.7434C114.654 69.2123 114.07 70.621 113.032 71.6597C111.993 72.6984 110.584 73.2819 109.115 73.2819C107.646 73.2819 106.238 72.6984 105.199 71.6597C104.16 70.621 103.577 69.2123 103.577 67.7434V62.205H81.4231V67.7434C81.4231 69.2123 80.8396 70.621 79.8009 71.6597C78.7622 72.6984 77.3535 73.2819 75.8846 73.2819C74.4157 73.2819 73.007 72.6984 71.9683 71.6597C70.9297 70.621 70.3462 69.2123 70.3462 67.7434V62.205H64.8077ZM62.0385 81.5896H122.962V120.359C122.962 121.885 121.718 123.128 120.192 123.128H64.8077C63.2818 123.128 62.0385 121.885 62.0385 120.359V81.5896ZM87 92.6637V96.1933L91.2218 94.8293V115.667H96V89.8293H91.2218L87 92.6637Z" fill="white"/>
</g>
</g>
<defs>
<filter id="filter0_d_9928_209" x="0.5" y="0.666504" width="184" height="184" filterUnits="userSpaceOnUse" color-interpolation-filters="sRGB">
<feFlood flood-opacity="0" result="BackgroundImageFix"/>
<feColorMatrix in="SourceAlpha" type="matrix" values="0 0 0 0 0 0 0 0 0 0 0 0 0 0 0 0 0 0 127 0" result="hardAlpha"/>
<feOffset/>
<feGaussianBlur stdDeviation="10"/>
<feComposite in2="hardAlpha" operator="out"/>
<feColorMatrix type="matrix" values="0 0 0 0 0 0 0 0 0 0 0 0 0 0 0 0 0 0 0.1 0"/>
<feBlend mode="normal" in2="BackgroundImageFix" result="effect1_dropShadow_9928_209"/>
<feBlend mode="normal" in="SourceGraphic" in2="effect1_dropShadow_9928_209" result="shape"/>
</filter>
<linearGradient id="paint0_linear_9928_209" x1="92.5" y1="20.6665" x2="92.5" y2="164.667" gradientUnits="userSpaceOnUse">
<stop stop-color="#70A3E0"/>
<stop offset="1" stop-color="#023DBB"/>
</linearGradient>
<clipPath id="clip0_9928_209">
<rect width="72" height="72" fill="white" transform="translate(56.5 56.6665)"/>
</clipPath>
</defs>
</svg>
