<svg width="112" height="112" viewBox="0 0 112 112" fill="none" xmlns="http://www.w3.org/2000/svg">
<g filter="url(#filter0_d_9928_2738)">
<rect x="20" y="20" width="72" height="72" rx="10" fill="url(#paint0_linear_9928_2738)"/>
</g>
<path d="M62.0625 56.5C62.0625 58.0176 61.9805 59.4805 61.8369 60.875H49.1631C49.0127 59.4805 48.9375 58.0176 48.9375 56.5C48.9375 54.9824 49.0195 53.5195 49.1631 52.125H61.8369C61.9873 53.5195 62.0625 54.9824 62.0625 56.5ZM64.0312 52.125H72.4463C72.8086 53.5264 73 54.9893 73 56.5C73 58.0107 72.8086 59.4736 72.4463 60.875H64.0312C64.1748 59.4668 64.25 58.0039 64.25 56.5C64.25 54.9961 64.1748 53.5332 64.0312 52.125ZM71.7285 49.9375H63.751C63.0674 45.5693 61.7139 41.9121 59.9707 39.5742C65.3232 40.9893 69.6777 44.8721 71.7217 49.9375H71.7285ZM61.5361 49.9375H49.4639C49.8809 47.4492 50.5234 45.248 51.3096 43.4639C52.0273 41.8506 52.8271 40.6816 53.5996 39.9434C54.3652 39.2188 55.001 39 55.5 39C55.999 39 56.6348 39.2188 57.4004 39.9434C58.1729 40.6816 58.9727 41.8506 59.6904 43.4639C60.4834 45.2412 61.1191 47.4424 61.5361 49.9375ZM47.249 49.9375H39.2715C41.3223 44.8721 45.6699 40.9893 51.0293 39.5742C49.2861 41.9121 47.9326 45.5693 47.249 49.9375ZM38.5537 52.125H46.9688C46.8252 53.5332 46.75 54.9961 46.75 56.5C46.75 58.0039 46.8252 59.4668 46.9688 60.875H38.5537C38.1914 59.4736 38 58.0107 38 56.5C38 54.9893 38.1914 53.5264 38.5537 52.125ZM51.3096 69.5293C50.5166 67.752 49.8809 65.5508 49.4639 63.0625H61.5361C61.1191 65.5508 60.4766 67.752 59.6904 69.5293C58.9727 71.1426 58.1729 72.3115 57.4004 73.0498C56.6348 73.7812 55.999 74 55.5 74C55.001 74 54.3652 73.7812 53.5996 73.0566C52.8271 72.3184 52.0273 71.1494 51.3096 69.5361V69.5293ZM47.249 63.0625C47.9326 67.4307 49.2861 71.0879 51.0293 73.4258C45.6699 72.0107 41.3223 68.1279 39.2715 63.0625H47.249ZM71.7285 63.0625C69.6777 68.1279 65.3301 72.0107 59.9775 73.4258C61.7207 71.0879 63.0674 67.4307 63.7578 63.0625H71.7285Z" fill="url(#paint1_linear_9928_2738)"/>
<defs>
<filter id="filter0_d_9928_2738" x="0" y="0" width="112" height="112" filterUnits="userSpaceOnUse" color-interpolation-filters="sRGB">
<feFlood flood-opacity="0" result="BackgroundImageFix"/>
<feColorMatrix in="SourceAlpha" type="matrix" values="0 0 0 0 0 0 0 0 0 0 0 0 0 0 0 0 0 0 127 0" result="hardAlpha"/>
<feOffset/>
<feGaussianBlur stdDeviation="10"/>
<feComposite in2="hardAlpha" operator="out"/>
<feColorMatrix type="matrix" values="0 0 0 0 0 0 0 0 0 0 0 0 0 0 0 0 0 0 0.1 0"/>
<feBlend mode="normal" in2="BackgroundImageFix" result="effect1_dropShadow_9928_2738"/>
<feBlend mode="normal" in="SourceGraphic" in2="effect1_dropShadow_9928_2738" result="shape"/>
</filter>
<linearGradient id="paint0_linear_9928_2738" x1="56" y1="20" x2="56" y2="92" gradientUnits="userSpaceOnUse">
<stop stop-color="#EDECEC"/>
<stop offset="1" stop-color="#DDDDDD"/>
</linearGradient>
<linearGradient id="paint1_linear_9928_2738" x1="55.5" y1="39" x2="55.5" y2="74" gradientUnits="userSpaceOnUse">
<stop stop-color="#FF907A"/>
<stop offset="1" stop-color="#EE3F16"/>
</linearGradient>
</defs>
</svg>
