<svg width="185" height="185" viewBox="0 0 185 185" fill="none" xmlns="http://www.w3.org/2000/svg">
<g filter="url(#filter0_d_9928_2129)">
<rect x="20.5" y="20.6665" width="144" height="144" rx="20" fill="url(#paint0_linear_9928_2129)"/>
</g>
<path d="M105.5 92.6665C105.5 96.1353 105.312 99.479 104.984 102.667H76.0156C75.6719 99.479 75.5 96.1353 75.5 92.6665C75.5 89.1978 75.6875 85.854 76.0156 82.6665H104.984C105.328 85.854 105.5 89.1978 105.5 92.6665ZM110 82.6665H129.234C130.062 85.8696 130.5 89.2134 130.5 92.6665C130.5 96.1196 130.062 99.4634 129.234 102.667H110C110.328 99.4478 110.5 96.104 110.5 92.6665C110.5 89.229 110.328 85.8853 110 82.6665ZM127.594 77.6665H109.359C107.797 67.6821 104.703 59.3228 100.719 53.979C112.953 57.2134 122.906 66.0884 127.578 77.6665H127.594ZM104.297 77.6665H76.7031C77.6562 71.979 79.125 66.9478 80.9219 62.8696C82.5625 59.1821 84.3906 56.5103 86.1562 54.8228C87.9062 53.1665 89.3594 52.6665 90.5 52.6665C91.6406 52.6665 93.0938 53.1665 94.8438 54.8228C96.6094 56.5103 98.4375 59.1821 100.078 62.8696C101.891 66.9321 103.344 71.9634 104.297 77.6665ZM71.6406 77.6665H53.4062C58.0938 66.0884 68.0312 57.2134 80.2812 53.979C76.2969 59.3228 73.2031 67.6821 71.6406 77.6665ZM51.7656 82.6665H71C70.6719 85.8853 70.5 89.229 70.5 92.6665C70.5 96.104 70.6719 99.4478 71 102.667H51.7656C50.9375 99.4634 50.5 96.1196 50.5 92.6665C50.5 89.2134 50.9375 85.8696 51.7656 82.6665ZM80.9219 122.448C79.1094 118.385 77.6562 113.354 76.7031 107.667H104.297C103.344 113.354 101.875 118.385 100.078 122.448C98.4375 126.135 96.6094 128.807 94.8438 130.495C93.0938 132.167 91.6406 132.667 90.5 132.667C89.3594 132.667 87.9062 132.167 86.1562 130.51C84.3906 128.823 82.5625 126.151 80.9219 122.463V122.448ZM71.6406 107.667C73.2031 117.651 76.2969 126.01 80.2812 131.354C68.0312 128.12 58.0938 119.245 53.4062 107.667H71.6406ZM127.594 107.667C122.906 119.245 112.969 128.12 100.734 131.354C104.719 126.01 107.797 117.651 109.375 107.667H127.594Z" fill="white"/>
<defs>
<filter id="filter0_d_9928_2129" x="0.5" y="0.666504" width="184" height="184" filterUnits="userSpaceOnUse" color-interpolation-filters="sRGB">
<feFlood flood-opacity="0" result="BackgroundImageFix"/>
<feColorMatrix in="SourceAlpha" type="matrix" values="0 0 0 0 0 0 0 0 0 0 0 0 0 0 0 0 0 0 127 0" result="hardAlpha"/>
<feOffset/>
<feGaussianBlur stdDeviation="10"/>
<feComposite in2="hardAlpha" operator="out"/>
<feColorMatrix type="matrix" values="0 0 0 0 0 0 0 0 0 0 0 0 0 0 0 0 0 0 0.1 0"/>
<feBlend mode="normal" in2="BackgroundImageFix" result="effect1_dropShadow_9928_2129"/>
<feBlend mode="normal" in="SourceGraphic" in2="effect1_dropShadow_9928_2129" result="shape"/>
</filter>
<linearGradient id="paint0_linear_9928_2129" x1="92.5" y1="20.6665" x2="92.5" y2="164.667" gradientUnits="userSpaceOnUse">
<stop stop-color="#FF907A"/>
<stop offset="1" stop-color="#EE3F16"/>
</linearGradient>
</defs>
</svg>
