<svg width="690" height="120" viewBox="0 0 690 120" fill="none" xmlns="http://www.w3.org/2000/svg">
<g clip-path="url(#clip0_9123_139772)">
<path fill-rule="evenodd" clip-rule="evenodd" d="M58.4219 0.13623L96.6252 20.6206L81.3013 28.8366C81.2966 28.839 81.2896 28.8425 81.2826 28.8472L58.4219 41.105L35.5612 28.8472C35.5565 28.8425 35.5483 28.8401 35.5436 28.8366L20.2173 20.6206L58.4219 0.13623ZM120.25 91.4762V14.7519H94.1446L101.359 18.6204H114.388C115.485 18.6204 116.381 19.5155 116.381 20.6208V85.6074C116.381 86.7125 115.485 87.6078 114.388 87.6078H6.11781C5.01508 87.6078 4.11742 86.7127 4.11742 85.6074V20.6206C4.11742 19.5155 5.01508 18.6202 6.11781 18.6202H15.4853L22.698 14.7516H0.25V91.4759H120.25V91.4762ZM84.6273 110.801H35.8762C39.3355 105.883 41.3359 100.908 42.0508 95.4755H78.4516C79.1664 100.908 81.1668 105.883 84.6273 110.801ZM96.8444 117.333V119.864H23.658V117.333C23.658 115.936 24.7926 114.8 26.1904 114.8H94.3145C95.7098 114.8 96.8444 115.936 96.8444 117.333ZM36.6016 51.714L55.7444 61.9786C56.6207 62.4481 57.5219 62.6827 58.4219 62.6827C59.3242 62.6827 60.2242 62.4481 61.1017 61.9786L80.2448 51.714V54.3608L62.2047 64.0344C59.7644 65.3424 57.0787 65.3424 54.6419 64.0344L36.6016 54.3608V51.714ZM57.4757 45.1362L36.6016 33.9425V47.1746L57.6339 58.4534C58.2166 58.7649 58.6281 58.7649 59.2108 58.4534L80.2445 47.1758V33.9425L59.3666 45.1365C59.0718 45.2944 58.7463 45.3746 58.4219 45.3746C58.0963 45.3746 57.7708 45.2944 57.4757 45.1362ZM98.8579 41.0944V23.9621L84.2441 31.797V55.5565C84.2441 56.2937 83.8396 56.9719 83.1897 57.3197L64.094 67.5596C62.2633 68.5397 60.3445 69.0303 58.4219 69.0303C56.5016 69.0303 54.5814 68.5397 52.7509 67.5596L33.6564 57.3197C33.0053 56.9717 32.6008 56.2937 32.6008 55.5565V31.797L15.4853 22.6198H8.11703V83.607H112.383V22.6198H102.857V41.0956L105.517 42.6301C106.135 42.9875 106.517 43.6479 106.517 44.3626V55.0069C106.517 55.7206 106.135 56.3811 105.517 56.7383C105.207 56.9176 104.863 57.0059 104.518 57.0059C104.17 57.0059 103.825 56.9176 103.518 56.7383L100.857 55.2026L98.1972 56.7383C97.5803 57.0957 96.8172 57.0957 96.1966 56.7383C95.5797 56.3808 95.1965 55.7204 95.1965 55.0069V44.3626C95.1965 43.6479 95.5797 42.9872 96.1966 42.6301L98.8579 41.0944ZM102.518 45.5173V51.5431L101.857 51.1622C101.547 50.9829 101.203 50.8946 100.857 50.8946C100.513 50.8946 100.167 50.9829 99.8568 51.1622L99.1973 51.5419V45.5173L100.857 44.5585L102.518 45.5173Z" fill="white"/>
</g>
<path d="M212.055 37L205.495 44.2C204.428 42.76 202.908 41.5867 200.935 40.68C199.015 39.7733 197.068 39.32 195.095 39.32C192.482 39.32 190.162 39.9867 188.135 41.32C186.108 42.6 185.095 44.52 185.095 47.08C185.095 48.36 185.308 49.4533 185.735 50.36C186.215 51.2133 187.015 51.9867 188.135 52.68C189.308 53.3733 190.402 53.9067 191.415 54.28C192.428 54.6533 193.922 55.16 195.895 55.8C197.762 56.3867 199.282 56.8933 200.455 57.32C201.682 57.7467 203.122 58.44 204.775 59.4C206.482 60.3067 207.815 61.2933 208.775 62.36C209.788 63.4267 210.642 64.84 211.335 66.6C212.082 68.3067 212.455 70.2267 212.455 72.36C212.455 78.1733 210.482 82.6533 206.535 85.8C202.642 88.8933 197.735 90.44 191.815 90.44C188.028 90.44 184.375 89.7467 180.855 88.36C177.388 86.92 174.562 84.92 172.375 82.36L179.575 75.64C180.962 77.5067 182.802 79.0267 185.095 80.2C187.388 81.32 189.682 81.88 191.975 81.88C194.695 81.88 197.068 81.1867 199.095 79.8C201.175 78.4133 202.215 76.3067 202.215 73.48C202.215 72.52 202.082 71.6667 201.815 70.92C201.548 70.12 201.042 69.4 200.295 68.76C199.602 68.12 198.988 67.6133 198.455 67.24C197.922 66.8133 196.962 66.36 195.575 65.88C194.242 65.3467 193.282 64.9733 192.695 64.76C192.108 64.5467 190.935 64.1733 189.175 63.64C187.148 63 185.415 62.3333 183.975 61.64C182.535 60.9467 181.042 60.0133 179.495 58.84C178.002 57.6133 176.855 56.0667 176.055 54.2C175.255 52.28 174.855 50.0667 174.855 47.56C174.855 42.1733 176.882 38.0667 180.935 35.24C185.042 32.36 189.922 30.92 195.575 30.92C198.562 30.92 201.522 31.4533 204.455 32.52C207.442 33.5333 209.975 35.0267 212.055 37ZM267.913 49.48C272.606 49.48 276.126 51 278.473 54.04C280.873 57.0267 282.073 60.68 282.073 65V89H272.473V67.72C272.473 60.8933 270.073 57.48 265.273 57.48C262.499 57.48 260.393 58.5467 258.953 60.68C257.513 62.76 256.793 65.2133 256.793 68.04V89H247.193V65.8C247.193 63.2933 246.579 61.2933 245.353 59.8C244.179 58.2533 242.419 57.48 240.073 57.48C237.353 57.48 235.273 58.52 233.833 60.6C232.393 62.6267 231.673 65.0533 231.673 67.88V89H222.073V50.6H231.193V56.76H231.353C232.259 54.68 233.753 52.9467 235.833 51.56C237.913 50.1733 240.393 49.48 243.273 49.48C248.873 49.48 252.873 51.9067 255.273 56.76C257.939 51.9067 262.153 49.48 267.913 49.48ZM317.084 89V84.12H316.844C315.884 85.8267 314.311 87.24 312.124 88.36C309.991 89.4267 307.591 89.96 304.924 89.96C301.244 89.96 297.911 89 294.924 87.08C291.991 85.1067 290.524 82.0933 290.524 78.04C290.524 75.8533 291.058 73.96 292.124 72.36C293.244 70.7067 294.631 69.4267 296.284 68.52C297.938 67.6133 299.991 66.8933 302.444 66.36C304.951 65.7733 307.298 65.4 309.484 65.24C311.724 65.08 314.204 65 316.924 65V64.04C316.924 61.8 316.098 60.0667 314.444 58.84C312.791 57.6133 310.684 57 308.124 57C304.071 57 300.578 58.4667 297.644 61.4L292.684 55.56C297.058 51.5067 302.471 49.48 308.924 49.48C312.231 49.48 315.031 49.96 317.324 50.92C319.671 51.8267 321.458 53.1067 322.684 54.76C323.911 56.36 324.764 58.0667 325.244 59.88C325.778 61.64 326.044 63.56 326.044 65.64V89H317.084ZM316.924 72.84V71.48H314.764C305.004 71.48 300.124 73.6133 300.124 77.88C300.124 79.5867 300.764 80.8133 302.044 81.56C303.378 82.3067 304.978 82.68 306.844 82.68C310.098 82.68 312.578 81.8267 314.284 80.12C316.044 78.36 316.924 75.9333 316.924 72.84ZM337.229 89V50.6H346.429V57H346.589C347.655 54.7067 349.175 52.8933 351.149 51.56C353.122 50.1733 355.335 49.48 357.789 49.48C358.695 49.48 359.469 49.56 360.109 49.72V58.52C359.042 58.2533 358.055 58.12 357.149 58.12C355.495 58.12 354.029 58.3867 352.749 58.92C351.469 59.4533 350.455 60.12 349.709 60.92C349.015 61.72 348.429 62.6267 347.949 63.64C347.522 64.6 347.229 65.48 347.069 66.28C346.909 67.08 346.829 67.8 346.829 68.44V89H337.229ZM366.632 58.28H359.912V50.6H366.632V39.48H376.072V50.6H385.672V58.28H376.072V76.12C376.072 78.04 376.419 79.5067 377.112 80.52C377.805 81.5333 379.139 82.04 381.112 82.04C382.765 82.04 384.125 81.7733 385.192 81.24L385.512 88.76C383.699 89.4533 381.565 89.8 379.112 89.8C374.419 89.8 371.165 88.6 369.352 86.2C367.539 83.7467 366.632 80.4133 366.632 76.2V58.28ZM413.099 89V32.36H431.579C445.819 32.36 452.939 37.8267 452.939 48.76C452.939 54.6267 450.913 58.8933 446.859 61.56C442.806 64.2267 437.499 65.56 430.939 65.56H423.179V89H413.099ZM423.179 57.08H430.219C438.593 57.08 442.779 54.3067 442.779 48.76C442.779 45.72 441.659 43.64 439.419 42.52C437.233 41.4 434.273 40.84 430.539 40.84H423.179V57.08ZM453.973 69.64C453.973 63.72 455.973 58.8933 459.973 55.16C463.973 51.3733 468.933 49.48 474.853 49.48C480.773 49.48 485.733 51.3733 489.733 55.16C493.733 58.8933 495.733 63.72 495.733 69.64C495.733 75.6133 493.706 80.52 489.653 84.36C485.653 88.2 480.72 90.12 474.853 90.12C468.986 90.12 464.026 88.2 459.973 84.36C455.973 80.52 453.973 75.6133 453.973 69.64ZM466.613 61C464.693 63.4533 463.733 66.3333 463.733 69.64C463.733 72.9467 464.693 75.8533 466.613 78.36C468.533 80.8667 471.28 82.12 474.853 82.12C478.426 82.12 481.173 80.8667 483.093 78.36C485.013 75.8533 485.973 72.9467 485.973 69.64C485.973 66.3333 485.013 63.4533 483.093 61C481.173 58.5467 478.426 57.32 474.853 57.32C471.28 57.32 468.533 58.5467 466.613 61ZM544.081 28.52V89H534.961V83.24H534.801C533.521 85.4267 531.681 87.1333 529.281 88.36C526.881 89.5333 524.321 90.12 521.601 90.12C515.895 90.12 511.308 88.1467 507.841 84.2C504.428 80.2533 502.721 75.4 502.721 69.64C502.721 63.88 504.455 59.08 507.921 55.24C511.441 51.4 515.921 49.48 521.361 49.48C526.748 49.48 531.041 51.48 534.241 55.48H534.481V28.52H544.081ZM515.361 61C513.441 63.4533 512.481 66.3333 512.481 69.64C512.481 72.9467 513.441 75.8533 515.361 78.36C517.335 80.8667 520.055 82.12 523.521 82.12C526.881 82.12 529.601 80.8667 531.681 78.36C533.761 75.8533 534.801 73 534.801 69.8C534.801 66.6 533.761 63.72 531.681 61.16C529.601 58.6 526.881 57.32 523.521 57.32C520.055 57.32 517.335 58.5467 515.361 61ZM555.904 89V50.6H565.504V89H555.904ZM556.304 41.64C555.131 40.4667 554.544 39.1067 554.544 37.56C554.544 36.0133 555.131 34.68 556.304 33.56C557.478 32.3867 558.918 31.8 560.624 31.8C562.384 31.8 563.851 32.36 565.024 33.48C566.251 34.5467 566.864 35.9067 566.864 37.56C566.864 39.2133 566.251 40.6 565.024 41.72C563.851 42.7867 562.384 43.32 560.624 43.32C558.918 43.32 557.478 42.76 556.304 41.64ZM612.191 50.6V89H603.071V82.84H602.911C602.004 84.8667 600.457 86.6 598.271 88.04C596.137 89.4267 593.711 90.12 590.991 90.12C586.297 90.12 582.751 88.6267 580.351 85.64C578.004 82.6 576.831 78.92 576.831 74.6V50.6H586.431V71.88C586.431 78.7067 588.831 82.12 593.631 82.12C596.511 82.12 598.724 81.1067 600.271 79.08C601.817 77 602.591 74.5467 602.591 71.72V50.6H612.191ZM669.553 49.48C674.246 49.48 677.766 51 680.113 54.04C682.513 57.0267 683.713 60.68 683.713 65V89H674.113V67.72C674.113 60.8933 671.713 57.48 666.913 57.48C664.14 57.48 662.033 58.5467 660.593 60.68C659.153 62.76 658.433 65.2133 658.433 68.04V89H648.833V65.8C648.833 63.2933 648.22 61.2933 646.993 59.8C645.82 58.2533 644.06 57.48 641.713 57.48C638.993 57.48 636.913 58.52 635.473 60.6C634.033 62.6267 633.313 65.0533 633.313 67.88V89H623.713V50.6H632.833V56.76H632.993C633.9 54.68 635.393 52.9467 637.473 51.56C639.553 50.1733 642.033 49.48 644.913 49.48C650.513 49.48 654.513 51.9067 656.913 56.76C659.58 51.9067 663.793 49.48 669.553 49.48Z" fill="white"/>
<defs>
<clipPath id="clip0_9123_139772">
<rect width="120" height="120" fill="white" transform="translate(0.25)"/>
</clipPath>
</defs>
</svg>
