<svg width="265" height="50" viewBox="0 0 265 50" fill="none" xmlns="http://www.w3.org/2000/svg">
<path fill-rule="evenodd" clip-rule="evenodd" d="M24.4186 0L40.3366 8.54487L33.9517 11.9721C33.9497 11.9731 33.9468 11.9745 33.9439 11.9765L24.4186 17.0897L14.8933 11.9765C14.8913 11.9745 14.8879 11.9736 14.8859 11.9721L8.5 8.54487L24.4186 0ZM15.3268 21.5152L23.3029 25.797C23.6681 25.9928 24.0436 26.0907 24.4186 26.0907C24.7945 26.0907 25.1695 25.9928 25.5352 25.797L33.5114 21.5152V22.6193L25.9947 26.6545C24.9779 27.2002 23.8589 27.2002 22.8436 26.6545L15.3268 22.6193V21.5152ZM24.0243 18.7713L15.3268 14.102V19.6216L24.0902 24.3265C24.333 24.4564 24.5045 24.4564 24.7473 24.3265L33.5113 19.6221V14.102L24.8122 18.7714C24.6894 18.8373 24.5537 18.8708 24.4186 18.8708C24.2829 18.8708 24.1473 18.8373 24.0243 18.7713Z" fill="#29383F"/>
<path fill-rule="evenodd" clip-rule="evenodd" d="M50 38.1583V6.15342H39.1228L42.1289 7.76717H47.5574C48.0145 7.76717 48.388 8.14054 48.388 8.60161V35.7102C48.388 36.1711 48.0145 36.5446 47.5574 36.5446H2.44492C1.98545 36.5446 1.61143 36.1712 1.61143 35.7102V8.60151C1.61143 8.14054 1.98545 7.76707 2.44492 7.76707H6.34805L9.35332 6.15332H0V38.1582L50 38.1583ZM35.1572 46.2195H14.8442C16.2856 44.1678 17.1191 42.0927 17.417 39.8266H32.584C32.8818 42.0927 33.7153 44.1678 35.1572 46.2195ZM40.2477 48.9441V49.9998H9.75332V48.9441C9.75332 48.3616 10.2261 47.8878 10.8085 47.8878H39.1936C39.7749 47.8878 40.2477 48.3616 40.2477 48.9441ZM41.0866 17.142V9.99538L34.9976 13.2637V23.1747C34.9976 23.4822 34.829 23.7651 34.5582 23.9102L26.6017 28.1817C25.8389 28.5905 25.0394 28.7952 24.2383 28.7952C23.4382 28.7952 22.6381 28.5905 21.8754 28.1817L13.9193 23.9102C13.648 23.765 13.4795 23.4822 13.4795 23.1747V13.2637L6.34805 9.43547H3.27793V34.8757H46.7221V9.43547H42.7531V17.1425L43.8613 17.7826C44.1188 17.9317 44.278 18.2072 44.278 18.5053V22.9455C44.278 23.2432 44.1188 23.5187 43.8613 23.6677C43.7321 23.7425 43.5886 23.7793 43.445 23.7793C43.3 23.7793 43.1561 23.7425 43.0283 23.6677L41.9195 23.0271L40.8113 23.6677C40.5543 23.8168 40.2363 23.8168 39.9777 23.6677C39.7207 23.5186 39.561 23.2431 39.561 22.9455V18.5053C39.561 18.2072 39.7207 17.9316 39.9777 17.7826L41.0866 17.142ZM42.6115 18.987V21.5006L42.3363 21.3417C42.2071 21.2669 42.0636 21.23 41.9195 21.23C41.7761 21.23 41.632 21.2669 41.5028 21.3417L41.228 21.5001V18.987L41.9195 18.587L42.6115 18.987Z" fill="#006BAC"/>
<path d="M85.8644 16L83.4044 18.7C83.0044 18.16 82.4344 17.72 81.6944 17.38C80.9744 17.04 80.2444 16.87 79.5044 16.87C78.5244 16.87 77.6544 17.12 76.8944 17.62C76.1344 18.1 75.7544 18.82 75.7544 19.78C75.7544 20.26 75.8344 20.67 75.9944 21.01C76.1744 21.33 76.4744 21.62 76.8944 21.88C77.3344 22.14 77.7444 22.34 78.1244 22.48C78.5044 22.62 79.0644 22.81 79.8044 23.05C80.5044 23.27 81.0744 23.46 81.5144 23.62C81.9744 23.78 82.5144 24.04 83.1344 24.4C83.7744 24.74 84.2744 25.11 84.6344 25.51C85.0144 25.91 85.3344 26.44 85.5944 27.1C85.8744 27.74 86.0144 28.46 86.0144 29.26C86.0144 31.44 85.2744 33.12 83.7944 34.3C82.3344 35.46 80.4944 36.04 78.2744 36.04C76.8544 36.04 75.4844 35.78 74.1644 35.26C72.8644 34.72 71.8044 33.97 70.9844 33.01L73.6844 30.49C74.2044 31.19 74.8944 31.76 75.7544 32.2C76.6144 32.62 77.4744 32.83 78.3344 32.83C79.3544 32.83 80.2444 32.57 81.0044 32.05C81.7844 31.53 82.1744 30.74 82.1744 29.68C82.1744 29.32 82.1244 29 82.0244 28.72C81.9244 28.42 81.7344 28.15 81.4544 27.91C81.1944 27.67 80.9644 27.48 80.7644 27.34C80.5644 27.18 80.2044 27.01 79.6844 26.83C79.1844 26.63 78.8244 26.49 78.6044 26.41C78.3844 26.33 77.9444 26.19 77.2844 25.99C76.5244 25.75 75.8744 25.5 75.3344 25.24C74.7944 24.98 74.2344 24.63 73.6544 24.19C73.0944 23.73 72.6644 23.15 72.3644 22.45C72.0644 21.73 71.9144 20.9 71.9144 19.96C71.9144 17.94 72.6744 16.4 74.1944 15.34C75.7344 14.26 77.5644 13.72 79.6844 13.72C80.8044 13.72 81.9144 13.92 83.0144 14.32C84.1344 14.7 85.0844 15.26 85.8644 16ZM106.811 20.68C108.571 20.68 109.891 21.25 110.771 22.39C111.671 23.51 112.121 24.88 112.121 26.5V35.5H108.521V27.52C108.521 24.96 107.621 23.68 105.821 23.68C104.781 23.68 103.991 24.08 103.451 24.88C102.911 25.66 102.641 26.58 102.641 27.64V35.5H99.0409V26.8C99.0409 25.86 98.8109 25.11 98.3509 24.55C97.9109 23.97 97.2509 23.68 96.3709 23.68C95.3509 23.68 94.5709 24.07 94.0309 24.85C93.4909 25.61 93.2209 26.52 93.2209 27.58V35.5H89.6209V21.1H93.0409V23.41H93.1009C93.4409 22.63 94.0009 21.98 94.7809 21.46C95.5609 20.94 96.4909 20.68 97.5709 20.68C99.6709 20.68 101.171 21.59 102.071 23.41C103.071 21.59 104.651 20.68 106.811 20.68ZM125.25 35.5V33.67H125.16C124.8 34.31 124.21 34.84 123.39 35.26C122.59 35.66 121.69 35.86 120.69 35.86C119.31 35.86 118.06 35.5 116.94 34.78C115.84 34.04 115.29 32.91 115.29 31.39C115.29 30.57 115.49 29.86 115.89 29.26C116.31 28.64 116.83 28.16 117.45 27.82C118.07 27.48 118.84 27.21 119.76 27.01C120.7 26.79 121.58 26.65 122.4 26.59C123.24 26.53 124.17 26.5 125.19 26.5V26.14C125.19 25.3 124.88 24.65 124.26 24.19C123.64 23.73 122.85 23.5 121.89 23.5C120.37 23.5 119.06 24.05 117.96 25.15L116.1 22.96C117.74 21.44 119.77 20.68 122.19 20.68C123.43 20.68 124.48 20.86 125.34 21.22C126.22 21.56 126.89 22.04 127.35 22.66C127.81 23.26 128.13 23.9 128.31 24.58C128.51 25.24 128.61 25.96 128.61 26.74V35.5H125.25ZM125.19 29.44V28.93H124.38C120.72 28.93 118.89 29.73 118.89 31.33C118.89 31.97 119.13 32.43 119.61 32.71C120.11 32.99 120.71 33.13 121.41 33.13C122.63 33.13 123.56 32.81 124.2 32.17C124.86 31.51 125.19 30.6 125.19 29.44ZM132.805 35.5V21.1H136.255V23.5H136.315C136.715 22.64 137.285 21.96 138.025 21.46C138.765 20.94 139.595 20.68 140.515 20.68C140.855 20.68 141.145 20.71 141.385 20.77V24.07C140.985 23.97 140.615 23.92 140.275 23.92C139.655 23.92 139.105 24.02 138.625 24.22C138.145 24.42 137.765 24.67 137.485 24.97C137.225 25.27 137.005 25.61 136.825 25.99C136.665 26.35 136.555 26.68 136.495 26.98C136.435 27.28 136.405 27.55 136.405 27.79V35.5H132.805ZM143.831 23.98H141.311V21.1H143.831V16.93H147.371V21.1H150.971V23.98H147.371V30.67C147.371 31.39 147.501 31.94 147.761 32.32C148.021 32.7 148.521 32.89 149.261 32.89C149.881 32.89 150.391 32.79 150.791 32.59L150.911 35.41C150.231 35.67 149.431 35.8 148.511 35.8C146.751 35.8 145.531 35.35 144.851 34.45C144.171 33.53 143.831 32.28 143.831 30.7V23.98Z" fill="#006BAC"/>
<path d="M161.256 35.5V14.26H168.186C173.526 14.26 176.196 16.31 176.196 20.41C176.196 22.61 175.436 24.21 173.916 25.21C172.396 26.21 170.406 26.71 167.946 26.71H165.036V35.5H161.256ZM165.036 23.53H167.676C170.816 23.53 172.386 22.49 172.386 20.41C172.386 19.27 171.966 18.49 171.126 18.07C170.306 17.65 169.196 17.44 167.796 17.44H165.036V23.53ZM176.584 28.24C176.584 26.02 177.334 24.21 178.834 22.81C180.334 21.39 182.194 20.68 184.414 20.68C186.634 20.68 188.494 21.39 189.994 22.81C191.494 24.21 192.244 26.02 192.244 28.24C192.244 30.48 191.484 32.32 189.964 33.76C188.464 35.2 186.614 35.92 184.414 35.92C182.214 35.92 180.354 35.2 178.834 33.76C177.334 32.32 176.584 30.48 176.584 28.24ZM181.324 25C180.604 25.92 180.244 27 180.244 28.24C180.244 29.48 180.604 30.57 181.324 31.51C182.044 32.45 183.074 32.92 184.414 32.92C185.754 32.92 186.784 32.45 187.504 31.51C188.224 30.57 188.584 29.48 188.584 28.24C188.584 27 188.224 25.92 187.504 25C186.784 24.08 185.754 23.62 184.414 23.62C183.074 23.62 182.044 24.08 181.324 25ZM210.374 12.82V35.5H206.954V33.34H206.894C206.414 34.16 205.724 34.8 204.824 35.26C203.924 35.7 202.964 35.92 201.944 35.92C199.804 35.92 198.084 35.18 196.784 33.7C195.504 32.22 194.864 30.4 194.864 28.24C194.864 26.08 195.514 24.28 196.814 22.84C198.134 21.4 199.814 20.68 201.854 20.68C203.874 20.68 205.484 21.43 206.684 22.93H206.774V12.82H210.374ZM199.604 25C198.884 25.92 198.524 27 198.524 28.24C198.524 29.48 198.884 30.57 199.604 31.51C200.344 32.45 201.364 32.92 202.664 32.92C203.924 32.92 204.944 32.45 205.724 31.51C206.504 30.57 206.894 29.5 206.894 28.3C206.894 27.1 206.504 26.02 205.724 25.06C204.944 24.1 203.924 23.62 202.664 23.62C201.364 23.62 200.344 24.08 199.604 25ZM214.808 35.5V21.1H218.408V35.5H214.808ZM214.958 17.74C214.518 17.3 214.298 16.79 214.298 16.21C214.298 15.63 214.518 15.13 214.958 14.71C215.398 14.27 215.938 14.05 216.578 14.05C217.238 14.05 217.788 14.26 218.228 14.68C218.688 15.08 218.918 15.59 218.918 16.21C218.918 16.83 218.688 17.35 218.228 17.77C217.788 18.17 217.238 18.37 216.578 18.37C215.938 18.37 215.398 18.16 214.958 17.74ZM235.915 21.1V35.5H232.495V33.19H232.435C232.095 33.95 231.515 34.6 230.695 35.14C229.895 35.66 228.985 35.92 227.965 35.92C226.205 35.92 224.875 35.36 223.975 34.24C223.095 33.1 222.655 31.72 222.655 30.1V21.1H226.255V29.08C226.255 31.64 227.155 32.92 228.955 32.92C230.035 32.92 230.865 32.54 231.445 31.78C232.025 31 232.315 30.08 232.315 29.02V21.1H235.915ZM257.426 20.68C259.186 20.68 260.506 21.25 261.386 22.39C262.286 23.51 262.736 24.88 262.736 26.5V35.5H259.136V27.52C259.136 24.96 258.236 23.68 256.436 23.68C255.396 23.68 254.606 24.08 254.066 24.88C253.526 25.66 253.256 26.58 253.256 27.64V35.5H249.656V26.8C249.656 25.86 249.426 25.11 248.966 24.55C248.526 23.97 247.866 23.68 246.986 23.68C245.966 23.68 245.186 24.07 244.646 24.85C244.106 25.61 243.836 26.52 243.836 27.58V35.5H240.236V21.1H243.656V23.41H243.716C244.056 22.63 244.616 21.98 245.396 21.46C246.176 20.94 247.106 20.68 248.186 20.68C250.286 20.68 251.786 21.59 252.686 23.41C253.686 21.59 255.266 20.68 257.426 20.68Z" fill="#29383F"/>
</svg>
