<svg width="187" height="185" viewBox="0 0 187 185" fill="none" xmlns="http://www.w3.org/2000/svg">
<g filter="url(#filter0_d_9928_4462)">
<rect x="20.5" y="20.6665" width="146" height="144" rx="20" fill="url(#paint0_linear_9928_4462)" shape-rendering="crispEdges"/>
<g clip-path="url(#clip0_9928_4462)">
<path d="M84.8466 56.6663C84.4447 56.726 84.0609 56.8735 83.7223 57.0983C83.7223 57.0983 80.2192 59.3026 76.4531 61.6869C72.6869 64.0684 68.4971 66.6936 67.5389 67.2253L67.3645 67.3084C63.8863 69.4546 63.1635 72.9604 63.0389 74.9266C63.0306 75.018 63.0389 75.0927 63.0389 75.1896C63.0085 75.9263 63.0389 76.3998 63.0389 76.3998V112.574C63.0389 117.83 69.1672 120.359 74.9826 120.359C76.9211 120.359 78.8595 120.046 80.5211 119.492C81.6288 118.938 82.4235 117.83 82.4235 116.723V87.6456C82.4235 81.2764 83.8082 78.2856 87.962 75.7933C89.0697 75.2395 100.684 67.2226 100.684 67.2226C101.238 66.6687 101.808 65.5444 101.808 64.7136V64.4533C101.808 63.3456 101.254 62.4983 100.424 61.9444C99.5928 61.3906 98.4851 61.3906 97.6543 61.9444C97.3774 62.2213 80.4851 73.5946 76.8851 75.533C73.2851 77.7484 69.926 78.2829 69.0952 77.1752C68.8377 76.9176 68.6134 76.1284 68.5774 75.3586V75.1841C68.5802 74.4309 68.774 73.013 70.3082 72.0687C71.8645 71.202 75.7275 68.7346 79.4826 66.3586C81.0694 65.3533 81.266 65.2453 82.5094 64.4533C82.6731 65.1298 83.0855 65.7199 83.6646 66.1061C84.2437 66.4922 84.9469 66.6462 85.6344 66.5372C86.3218 66.4283 86.943 66.0645 87.3744 65.5182C87.8057 64.972 88.0155 64.2833 87.962 63.5893V59.4355C87.9651 59.0408 87.8838 58.65 87.7235 58.2893C87.5632 57.9285 87.3277 57.6063 87.0326 57.344C86.7376 57.0818 86.3899 56.8856 86.0129 56.7687C85.6359 56.6518 85.2382 56.6169 84.8466 56.6663ZM107 66.3586C106.56 66.4318 106.144 66.6104 105.788 66.8792C105.788 66.8792 91.8472 76.2586 89.4325 77.8675L89.3466 77.9561C87.3417 79.4598 86.1537 81.2487 85.6248 82.8853C85.3301 83.809 85.1843 84.7737 85.1928 85.7432V86.61C85.1888 86.6958 85.1888 86.7817 85.1928 86.8675V120.359C85.1928 125.62 91.2519 128.666 96.7903 128.666C99.2826 128.666 101.531 128.129 103.193 127.021C106.516 125.083 122.577 112.571 122.577 112.571C123.408 112.018 123.962 111.237 123.962 110.406V74.406C123.962 73.0213 123.425 72.1906 122.317 71.6367C121.486 71.0829 120.121 71.3432 119.29 71.897C114.86 75.2201 102.932 84.6023 100.163 86.2638C96.2863 88.4792 92.6337 89.033 91.2491 87.6484C90.6952 87.0946 90.7312 86.574 90.7312 85.7432C90.746 85.2632 90.8042 84.8589 90.9057 84.5303C91.0608 84.0484 91.3765 83.4558 92.5479 82.542C92.6032 82.4976 92.5755 82.5004 92.6337 82.4561C94.6359 81.1186 100.759 76.9453 104.752 74.2315C104.978 74.8384 105.41 75.3468 105.972 75.6683C106.535 75.9898 107.192 76.104 107.83 75.9911C108.467 75.8781 109.045 75.5452 109.463 75.0502C109.881 74.5551 110.112 73.9294 110.116 73.2816V69.1278C110.119 68.7331 110.038 68.3423 109.877 67.9816C109.717 67.6208 109.482 67.2986 109.186 67.0363C108.891 66.7741 108.544 66.5779 108.167 66.461C107.79 66.3442 107.392 66.3092 107 66.3586ZM118.424 86.61V92.1484L104.577 102.876V97.338L118.424 86.61Z" fill="white"/>
</g>
</g>
<defs>
<filter id="filter0_d_9928_4462" x="0.5" y="0.666504" width="186" height="184" filterUnits="userSpaceOnUse" color-interpolation-filters="sRGB">
<feFlood flood-opacity="0" result="BackgroundImageFix"/>
<feColorMatrix in="SourceAlpha" type="matrix" values="0 0 0 0 0 0 0 0 0 0 0 0 0 0 0 0 0 0 127 0" result="hardAlpha"/>
<feOffset/>
<feGaussianBlur stdDeviation="10"/>
<feComposite in2="hardAlpha" operator="out"/>
<feColorMatrix type="matrix" values="0 0 0 0 0 0 0 0 0 0 0 0 0 0 0 0 0 0 0.1 0"/>
<feBlend mode="normal" in2="BackgroundImageFix" result="effect1_dropShadow_9928_4462"/>
<feBlend mode="normal" in="SourceGraphic" in2="effect1_dropShadow_9928_4462" result="shape"/>
</filter>
<linearGradient id="paint0_linear_9928_4462" x1="93.5" y1="20.6665" x2="93.5" y2="164.667" gradientUnits="userSpaceOnUse">
<stop stop-color="#FED7B5"/>
<stop offset="1" stop-color="#FCA106"/>
</linearGradient>
<clipPath id="clip0_9928_4462">
<rect width="72" height="72" fill="white" transform="translate(57.5 56.6665)"/>
</clipPath>
</defs>
</svg>
