<svg width="112" height="112" viewBox="0 0 112 112" fill="none" xmlns="http://www.w3.org/2000/svg">
<g filter="url(#filter0_d_9928_2734)">
<rect x="20" y="20" width="72" height="72" rx="10" fill="url(#paint0_linear_9928_2734)"/>
</g>
<g clip-path="url(#clip0_9928_2734)">
<path d="M49.9896 31C49.7105 31.0415 49.4439 31.1439 49.2088 31.3C49.2088 31.3 46.7761 32.8307 44.1607 34.4865C41.5453 36.1403 38.6357 37.9634 37.9703 38.3326L37.8492 38.3903C35.4338 39.8807 34.9319 42.3153 34.8453 43.6807C34.8396 43.7442 34.8453 43.7961 34.8453 43.8634C34.8242 44.375 34.8453 44.7038 34.8453 44.7038V69.825C34.8453 73.475 39.1011 75.2307 43.1396 75.2307C44.4857 75.2307 45.8319 75.0134 46.9857 74.6288C47.755 74.2442 48.3069 73.475 48.3069 72.7057V52.5134C48.3069 48.0903 49.2684 46.0134 52.153 44.2826C52.9223 43.898 60.9876 38.3307 60.9876 38.3307C61.3723 37.9461 61.7684 37.1653 61.7684 36.5884V36.4076C61.7684 35.6384 61.3838 35.05 60.8069 34.6653C60.23 34.2807 59.4607 34.2807 58.8838 34.6653C58.6915 34.8576 46.9607 42.7557 44.4607 44.1019C41.9607 45.6403 39.628 46.0115 39.0511 45.2423C38.8723 45.0634 38.7165 44.5153 38.6915 43.9807V43.8596C38.6934 43.3365 38.828 42.3519 39.8934 41.6961C40.9742 41.0942 43.6569 39.3807 46.2646 37.7307C47.3665 37.0326 47.503 36.9576 48.3665 36.4076C48.4802 36.8774 48.7666 37.2872 49.1687 37.5554C49.5708 37.8235 50.0592 37.9304 50.5366 37.8548C51.014 37.7791 51.4454 37.5265 51.7449 37.1472C52.0445 36.7678 52.1902 36.2896 52.153 35.8076V32.923C52.1552 32.6489 52.0987 32.3775 51.9874 32.127C51.8761 31.8765 51.7125 31.6527 51.5076 31.4706C51.3028 31.2885 51.0613 31.1523 50.7995 31.0711C50.5377 30.9899 50.2615 30.9657 49.9896 31ZM65.3742 37.7307C65.0684 37.7816 64.7794 37.9056 64.5319 38.0923C64.5319 38.0923 54.8511 44.6057 53.1742 45.723L53.1146 45.7846C51.7223 46.8288 50.8973 48.0711 50.53 49.2076C50.3253 49.8491 50.224 50.519 50.23 51.1923V51.7942C50.2272 51.8538 50.2272 51.9134 50.23 51.973V75.2307C50.23 78.8846 54.4376 81 58.2838 81C60.0146 81 61.5761 80.6269 62.73 79.8576C65.0376 78.5115 76.1915 69.823 76.1915 69.823C76.7684 69.4384 77.153 68.8961 77.153 68.3192V43.3192C77.153 42.3576 76.78 41.7807 76.0107 41.3961C75.4338 41.0115 74.4857 41.1923 73.9088 41.5769C70.8319 43.8846 62.5492 50.4 60.6261 51.5538C57.9338 53.0923 55.3973 53.4769 54.4357 52.5153C54.0511 52.1307 54.0761 51.7692 54.0761 51.1923C54.0864 50.8589 54.1267 50.5782 54.1973 50.35C54.305 50.0153 54.5242 49.6038 55.3376 48.9692C55.3761 48.9384 55.3569 48.9403 55.3973 48.9096C56.7876 47.9807 61.0396 45.0826 63.8126 43.198C63.9698 43.6195 64.2696 43.9726 64.6601 44.1958C65.0506 44.4191 65.507 44.4984 65.9499 44.42C66.3928 44.3415 66.7943 44.1103 67.0843 43.7666C67.3744 43.4228 67.5348 42.9882 67.5376 42.5384V39.6538C67.5398 39.3797 67.4833 39.1083 67.372 38.8578C67.2607 38.6073 67.0971 38.3835 66.8923 38.2014C66.6874 38.0193 66.4459 37.8831 66.1841 37.8019C65.9223 37.7207 65.6461 37.6965 65.3742 37.7307ZM73.3069 51.7942V55.6403L63.6915 63.0903V59.2442L73.3069 51.7942Z" fill="url(#paint1_linear_9928_2734)"/>
</g>
<defs>
<filter id="filter0_d_9928_2734" x="0" y="0" width="112" height="112" filterUnits="userSpaceOnUse" color-interpolation-filters="sRGB">
<feFlood flood-opacity="0" result="BackgroundImageFix"/>
<feColorMatrix in="SourceAlpha" type="matrix" values="0 0 0 0 0 0 0 0 0 0 0 0 0 0 0 0 0 0 127 0" result="hardAlpha"/>
<feOffset/>
<feGaussianBlur stdDeviation="10"/>
<feComposite in2="hardAlpha" operator="out"/>
<feColorMatrix type="matrix" values="0 0 0 0 0 0 0 0 0 0 0 0 0 0 0 0 0 0 0.1 0"/>
<feBlend mode="normal" in2="BackgroundImageFix" result="effect1_dropShadow_9928_2734"/>
<feBlend mode="normal" in="SourceGraphic" in2="effect1_dropShadow_9928_2734" result="shape"/>
</filter>
<linearGradient id="paint0_linear_9928_2734" x1="56" y1="20" x2="56" y2="92" gradientUnits="userSpaceOnUse">
<stop stop-color="#EDECEC"/>
<stop offset="1" stop-color="#DDDDDD"/>
</linearGradient>
<linearGradient id="paint1_linear_9928_2734" x1="55.9945" y1="30.9849" x2="55.9945" y2="81" gradientUnits="userSpaceOnUse">
<stop stop-color="#FCA106"/>
<stop offset="1" stop-color="#DEB38C"/>
</linearGradient>
<clipPath id="clip0_9928_2734">
<rect width="50" height="50" fill="white" transform="translate(31 31)"/>
</clipPath>
</defs>
</svg>
