<svg width="112" height="112" viewBox="0 0 112 112" fill="none" xmlns="http://www.w3.org/2000/svg">
<g filter="url(#filter0_d_8182_179277)">
<rect x="20" y="20" width="72" height="72" rx="10" fill="url(#paint0_linear_8182_179277)"/>
</g>
<path d="M65.5741 55.7404C69.5179 55.7404 72.9107 52.2747 72.9107 47.7617C72.9107 43.3031 69.5 40 65.5741 40C61.6491 40 58.2375 43.3751 58.2375 47.7977C58.2375 52.2747 61.6304 55.7404 65.5741 55.7404ZM44.4625 56.156C47.8741 56.156 50.8464 53.1227 50.8464 49.2054C50.8464 45.325 47.8554 42.4542 44.4625 42.4542C41.0518 42.4542 38.0429 45.3971 38.0616 49.2423C38.0616 53.1227 41.033 56.156 44.4634 56.156M34.2286 72.4561H48.1679C46.2607 69.7304 48.5902 64.2428 52.5339 61.2464C50.4982 59.9108 47.8741 58.9178 44.4446 58.9178C36.1723 58.9169 31 64.9273 31 69.9281C31 71.5537 31.917 72.4561 34.2286 72.4561ZM54.0375 72.4561H77.0929C79.9723 72.4561 81 71.6433 81 70.0546C81 65.3974 75.075 58.9714 65.5562 58.9714C56.0554 58.9714 50.1304 65.3974 50.1304 70.0555C50.1304 71.6433 51.1571 72.4561 54.0375 72.4561Z" fill="url(#paint1_linear_8182_179277)"/>
<defs>
<filter id="filter0_d_8182_179277" x="0" y="0" width="112" height="112" filterUnits="userSpaceOnUse" color-interpolation-filters="sRGB">
<feFlood flood-opacity="0" result="BackgroundImageFix"/>
<feColorMatrix in="SourceAlpha" type="matrix" values="0 0 0 0 0 0 0 0 0 0 0 0 0 0 0 0 0 0 127 0" result="hardAlpha"/>
<feOffset/>
<feGaussianBlur stdDeviation="10"/>
<feComposite in2="hardAlpha" operator="out"/>
<feColorMatrix type="matrix" values="0 0 0 0 0 0 0 0 0 0 0 0 0 0 0 0 0 0 0.1 0"/>
<feBlend mode="normal" in2="BackgroundImageFix" result="effect1_dropShadow_8182_179277"/>
<feBlend mode="normal" in="SourceGraphic" in2="effect1_dropShadow_8182_179277" result="shape"/>
</filter>
<linearGradient id="paint0_linear_8182_179277" x1="56" y1="20" x2="56" y2="92" gradientUnits="userSpaceOnUse">
<stop stop-color="#EDECEC"/>
<stop offset="1" stop-color="#DDDDDD"/>
</linearGradient>
<linearGradient id="paint1_linear_8182_179277" x1="56" y1="40" x2="56" y2="72.4561" gradientUnits="userSpaceOnUse">
<stop stop-color="#18AC70"/>
<stop offset="1" stop-color="#51E9A4"/>
</linearGradient>
</defs>
</svg>
