<svg width="185" height="185" viewBox="0 0 185 185" fill="none" xmlns="http://www.w3.org/2000/svg">
<g filter="url(#filter0_d_9928_1837)">
<rect x="20.5" y="20.6665" width="144" height="144" rx="20" fill="url(#paint0_linear_9928_1837)"/>
</g>
<g clip-path="url(#clip0_9928_1837)">
<path d="M106.287 93.3723C111.966 93.3723 116.851 88.3015 116.851 81.698C116.851 75.1743 111.94 70.3413 106.287 70.3413C100.635 70.3413 95.722 75.2797 95.722 81.7507C95.722 88.3015 100.608 93.3723 106.287 93.3723ZM75.886 93.9805C80.7987 93.9805 85.0789 89.5422 85.0789 83.8105C85.0789 78.1327 80.7717 73.9323 75.886 73.9323C70.9746 73.9323 66.6417 78.2382 66.6687 83.8645C66.6687 89.5422 70.9476 93.9805 75.8873 93.9805M61.1491 117.83H81.2217C78.4754 113.842 81.8299 105.813 87.5089 101.429C84.5774 99.4743 80.7987 98.0215 75.8603 98.0215C63.9481 98.0202 56.5 106.814 56.5 114.131C56.5 116.51 57.8204 117.83 61.1491 117.83ZM89.674 117.83H122.874C127.02 117.83 128.5 116.641 128.5 114.317C128.5 107.502 119.968 98.0999 106.261 98.0999C92.5797 98.0999 84.0477 107.502 84.0477 114.318C84.0477 116.641 85.5263 117.83 89.674 117.83Z" fill="white"/>
</g>
<defs>
<filter id="filter0_d_9928_1837" x="0.5" y="0.666504" width="184" height="184" filterUnits="userSpaceOnUse" color-interpolation-filters="sRGB">
<feFlood flood-opacity="0" result="BackgroundImageFix"/>
<feColorMatrix in="SourceAlpha" type="matrix" values="0 0 0 0 0 0 0 0 0 0 0 0 0 0 0 0 0 0 127 0" result="hardAlpha"/>
<feOffset/>
<feGaussianBlur stdDeviation="10"/>
<feComposite in2="hardAlpha" operator="out"/>
<feColorMatrix type="matrix" values="0 0 0 0 0 0 0 0 0 0 0 0 0 0 0 0 0 0 0.1 0"/>
<feBlend mode="normal" in2="BackgroundImageFix" result="effect1_dropShadow_9928_1837"/>
<feBlend mode="normal" in="SourceGraphic" in2="effect1_dropShadow_9928_1837" result="shape"/>
</filter>
<linearGradient id="paint0_linear_9928_1837" x1="92.5" y1="20.6665" x2="92.5" y2="164.667" gradientUnits="userSpaceOnUse">
<stop stop-color="#51E9A4"/>
<stop offset="1" stop-color="#18AC70"/>
</linearGradient>
<clipPath id="clip0_9928_1837">
<rect width="72" height="72" fill="white" transform="translate(56.5 56.6665)"/>
</clipPath>
</defs>
</svg>
