<svg width="160" height="160" viewBox="0 0 160 160" fill="none" xmlns="http://www.w3.org/2000/svg">
<g filter="url(#filter0_d_1_71)">
<rect x="20" y="20" width="120" height="120" rx="10" fill="url(#paint0_linear_1_71)"/>
</g>
<path fill-rule="evenodd" clip-rule="evenodd" d="M79.0697 40L104.539 53.6718L94.3227 59.1554C94.3195 59.1569 94.3148 59.1593 94.3102 59.1624L79.0697 67.3436L63.8292 59.1624C63.8261 59.1593 63.8206 59.1577 63.8175 59.1554L53.6 53.6718L79.0697 40ZM64.5228 74.4243L77.2847 81.2752C77.8689 81.5885 78.4697 81.7451 79.0697 81.7451C79.6713 81.7451 80.2713 81.5885 80.8563 81.2752L93.6183 74.4243V76.1908L81.5916 82.6472C79.9647 83.5203 78.1742 83.5203 76.5497 82.6472L64.5228 76.1908V74.4243ZM78.4389 70.0341L64.5228 62.5631V71.3946L78.5444 78.9224C78.9328 79.1303 79.2072 79.1303 79.5956 78.9224L93.6181 71.3954V62.5631L79.6995 70.0343C79.503 70.1397 79.2859 70.1932 79.0697 70.1932C78.8527 70.1932 78.6356 70.1397 78.4389 70.0341Z" fill="#29383F"/>
<path fill-rule="evenodd" clip-rule="evenodd" d="M120 101.053V49.8457H102.596L107.406 52.4277H116.092C116.823 52.4277 117.421 53.0251 117.421 53.7628V97.1365C117.421 97.874 116.823 98.4716 116.092 98.4716H43.9119C43.1767 98.4716 42.5783 97.8742 42.5783 97.1365V53.7626C42.5783 53.0251 43.1767 52.4275 43.9119 52.4275H50.1569L54.9653 49.8455H40V101.053L120 101.053ZM96.2516 113.951H63.7508C66.057 110.669 67.3906 107.349 67.8672 103.723H92.1344C92.6109 107.349 93.9445 110.669 96.2516 113.951ZM104.396 118.311V120H55.6053V118.311C55.6053 117.379 56.3617 116.621 57.2936 116.621H102.71C103.64 116.621 104.396 117.379 104.396 118.311ZM105.739 67.4274V55.9928L95.9961 61.222V77.0797C95.9961 77.5717 95.7264 78.0244 95.2931 78.2566L82.5627 85.0909C81.3422 85.7451 80.063 86.0725 78.7813 86.0725C77.5011 86.0725 76.2209 85.7451 75.0006 85.0909L62.2709 78.2566C61.8369 78.0243 61.5672 77.5717 61.5672 77.0797V61.222L50.1569 55.0969H45.2447V95.8013H114.755V55.0969H108.405V67.4282L110.178 68.4523C110.59 68.6908 110.845 69.1317 110.845 69.6086V76.7129C110.845 77.1892 110.59 77.6301 110.178 77.8685C109.971 77.9881 109.742 78.0471 109.512 78.0471C109.28 78.0471 109.05 77.9881 108.845 77.8685L107.071 76.8435L105.298 77.8685C104.887 78.107 104.378 78.107 103.964 77.8685C103.553 77.6299 103.298 77.1891 103.298 76.7129V69.6086C103.298 69.1317 103.553 68.6907 103.964 68.4523L105.739 67.4274ZM108.178 70.3793V74.4011L107.738 74.1469C107.531 74.0272 107.302 73.9682 107.071 73.9682C106.842 73.9682 106.611 74.0272 106.405 74.1469L105.965 74.4003V70.3793L107.071 69.7394L108.178 70.3793Z" fill="#006BAC"/>
<defs>
<filter id="filter0_d_1_71" x="0" y="0" width="160" height="160" filterUnits="userSpaceOnUse" color-interpolation-filters="sRGB">
<feFlood flood-opacity="0" result="BackgroundImageFix"/>
<feColorMatrix in="SourceAlpha" type="matrix" values="0 0 0 0 0 0 0 0 0 0 0 0 0 0 0 0 0 0 127 0" result="hardAlpha"/>
<feOffset/>
<feGaussianBlur stdDeviation="10"/>
<feComposite in2="hardAlpha" operator="out"/>
<feColorMatrix type="matrix" values="0 0 0 0 0 0 0 0 0 0 0 0 0 0 0 0 0 0 0.1 0"/>
<feBlend mode="normal" in2="BackgroundImageFix" result="effect1_dropShadow_1_71"/>
<feBlend mode="normal" in="SourceGraphic" in2="effect1_dropShadow_1_71" result="shape"/>
</filter>
<linearGradient id="paint0_linear_1_71" x1="80" y1="20" x2="80" y2="140" gradientUnits="userSpaceOnUse">
<stop stop-color="#EDECEC"/>
<stop offset="1" stop-color="#DDDDDD"/>
</linearGradient>
</defs>
</svg>
